<svg enable-background="new 0 0 32 32" viewBox="0 0 32 32" width="60" height="60" fill="#27ff82" xmlns="http://www.w3.org/2000/svg"><path d="m12.44 15.996c-.42 0-.721-.112-.903-.336s-.296-.504-.343-.84h-.07c-.159.448-.42.784-.784 1.008s-.798.336-1.302.336c-.766 0-1.36-.196-1.785-.588s-.637-.924-.637-1.596c0-.681.25-1.204.749-1.568s1.276-.546 2.331-.546h1.428v-.714c0-.513-.14-.905-.42-1.176s-.709-.406-1.288-.406c-.439 0-.805.098-1.099.294s-.539.457-.735.784l-.672-.63c.196-.392.508-.726.938-1.001.429-.275.97-.413 1.624-.413.877 0 1.559.214 2.044.643s.728 1.024.728 1.788v3.967h.826v.994zm-3.22-.785c.28 0 .537-.032.77-.098.233-.065.434-.159.602-.28s.299-.261.392-.42.14-.331.14-.518v-1.19h-1.484c-.644 0-1.113.093-1.407.28s-.441.457-.441.812v.294c0 .354.128.63.385.826.257.197.604.294 1.043.294zm5.446-6.44h1.12v1.163h.056c.187-.453.459-.788.819-1.005.359-.217.791-.326 1.295-.326.448 0 .854.089 1.219.266.363.177.674.429.931.756s.452.724.588 1.19c.135.467.203.99.203 1.568s-.068 1.101-.203 1.568c-.136.467-.331.863-.588 1.19s-.567.579-.931.756-.771.266-1.219.266c-.98 0-1.685-.443-2.114-1.331h-.056v3.962h-1.12zm2.982 6.398c.635 0 1.134-.199 1.498-.598s.546-.921.546-1.569v-1.238c0-.647-.182-1.17-.546-1.569s-.863-.598-1.498-.598c-.252 0-.492.035-.721.105-.229.072-.427.168-.595.29s-.301.27-.399.443c-.098.174-.147.359-.147.556v2.702c0 .234.049.443.147.626s.231.338.399.464.366.223.595.289c.229.065.469.097.721.097zm5.698-8.091c-.242 0-.418-.058-.524-.175-.107-.117-.161-.269-.161-.455v-.182c0-.187.054-.338.161-.455.106-.117.282-.175.524-.175.243 0 .418.058.525.175s.161.269.161.455v.182c0 .187-.054.338-.161.455s-.282.175-.525.175zm-.56 1.693h1.12v7.224h-1.12zm8.214 22.589h-30v-.72h30zm0-7h-30c-.199 0-.36-.161-.36-.36v-23c0-.199.161-.36.36-.36h30c.199 0 .36.161.36.36v23c0 .199-.161.36-.36.36zm-29.64-.72h29.28v-22.28h-29.28z"/><path d="m0 0h32v32h-32z" fill="none"/></svg>